<?xml version="1.0" encoding="UTF-8"?>
<svg id="Layer_2" data-name="Layer 2" xmlns="http://www.w3.org/2000/svg" viewBox="0 0 74.48 78.7">
  <defs>
    <style>
      .cls-1 {
        fill: #fadd94;
      }

      .cls-2 {
        fill: #fde7b1;
      }

      .cls-3 {
        fill: #ceeab3;
      }

      .cls-4 {
        fill: #31acff;
        opacity: .22;
      }

      .cls-5 {
        fill: #fddec8;
      }

      .cls-6 {
        fill: #fdf4e5;
      }

      .cls-7 {
        fill: #d27977;
      }

      .cls-8 {
        fill: #e38d8c;
      }

      .cls-9 {
        fill: #f0c1a4;
      }

      .cls-10 {
        fill: #efa9a7;
      }

      .cls-11 {
        fill: #a9d0ac;
      }
    </style>
  </defs>
  <g id="Layer_1-2" data-name="Layer 1">
    <g>
      <path class="cls-4" d="M72.17,51.67s-3.29-8.98-3.76-10.41c0-.03.01-.05.01-.08.49-.11,1.2.19,1.67.15.89-.09,2.11-.1,2.79-.76.27-.63-.76-.99-1.27-1.22.9-.57,1.82-.96,2.2-1.92.55-1.39-2.09-.72-2.87-.52.12-.37.41-.99.02-1.17-.42-.19-.86.21-1.22.15-.27.47-.81.65-1.19,1.01.13-.58-.17-1.31-.34-1.85.19-.35.32-.76.71-.94.54-1.39,3.74-1.66,5.06-3.02,0-.36-.46-.64-.54-.94.01-.27,1.57-1.44.84-1.83-.64-.35-1.38-.06-2-.03.48-1.05.91-2.76.1-3.54-1.23-.18-2.18,1.32-2.66,2.38-.47-.25-.64-1.73-1.56-1.47-.4.11-.37,1.17-.64,1.66-.17.32-.51.19-.84.19-.76.02-.94.68-1.51,1.02-.04.52-.31.98-.69,1.4-.02-.71-.28-1.3-.89-1.38l-.16.18c-.05-.16-.15-.27-.26-.37l-.75-1.7c.02-.75-.09-1.51-.61-1.51-.02,0-.03,0-.05,0l-2.64-6.02c1.82-2.22,2.98-4.93,2.5-7.83-.09-.54-.11-1.28-.29-1.72-.97-2.39-2.74-4.24-5.11-5.46-5.06-2.59-12.06-2.11-17.57-1-7.17,1.44-13.97,4.02-20.35,7.57-4.77,2.65-10.38,6.82-12.58,11.93-1.02,2.37-1.35,5.04-.5,7.5.47,1.35,1.19,2.81,2.29,3.68,1.45,1.14,3.21,1.88,5.03,2.27.49.11.85.38.98.86.25.97,8.47,26.56,8.47,26.56l3.35,9.62c.5,1.43,1.31,2.6,2.24,3.65,3.32,1.96,5.5,2.61,9.43,1.13l31.95-11.7c4.25-1.56,6.14-6.4,4.65-10.6l-1.44-3.93ZM58.81,25.01s-.01-.03-.02-.05c.02-.03.05-.04.08-.05-.02.03-.03.07-.05.1ZM39.06,73.61c.14.1.28.19.43.27-.15-.08-.29-.17-.43-.27,0,0,0,0,0,0ZM8.15,26.96c.06-2.07.88-3.91,2.16-5.54,2.34-2.97,5.22-5.27,8.51-7.18,7.38-4.28,17.27-7.91,25.82-8.63,2.8-.24,5.48,0,8.16.73.95.26,1.86.67,2.66,1.2-.79-.51-1.68-.91-2.61-1.17-2.69-.74-5.36-.97-8.16-.73-8.55.72-18.44,4.36-25.82,8.63-3.29,1.91-6.18,4.21-8.51,7.18-1.27,1.62-2.1,3.47-2.16,5.54-.06,2.31.94,3.98,2.53,4.98-1.62-1-2.65-2.68-2.58-5.01ZM28.78,72.52c-1.36-3.84-2.63-7.61-3.77-11.43-.23-.78-2.26-.95-3.93-5.3-.9-2.34-1.06-4.96-.16-7.33-.18-.09-.21-.28-.29-.53l-4.42-13.31c-.16-.49-.44-.86-.79-1.12.37.26.66.63.84,1.15l4.42,13.31c.08.25.11.43.29.52-.89,2.37-.74,4.99.16,7.33,1.67,4.35,3.69,4.52,3.93,5.3,1.14,3.82,2.42,7.59,3.77,11.43.29.81.81,1.45,1.47,1.91-.68-.46-1.23-1.11-1.52-1.94Z"/>
      <g>
        <path class="cls-9" d="M68.87,53.37c1.49,4.2-.4,9.04-4.65,10.6l-31.95,11.7c-3.93,1.47-6.11.82-9.43-1.13-.93-1.04-1.74-2.22-2.24-3.65l-3.35-9.62s-8.22-25.58-8.47-26.56c-.12-.48-.49-.75-.98-.86-1.82-.39-3.58-1.14-5.03-2.27-1.1-.86-1.82-2.32-2.29-3.68-.85-2.46-.52-5.13.5-7.5,2.2-5.12,7.81-9.28,12.58-11.93,6.38-3.54,13.18-6.13,20.35-7.57,5.51-1.11,12.51-1.59,17.57,1,2.37,1.22,4.14,3.07,5.11,5.46.18.44.2,1.18.29,1.72.48,2.9-.68,5.61-2.5,7.83l5.26,11.97c-1.3-.15-5.01-7.12-5.62-6.12-.33-.82-.63-1.48-1.31-1.96-.25-.18-.46-.53-.68-.66-.25-1.4-1.98-3.44-.55-4.96.74-.79,1.38-1.61,1.81-2.64,1.65-4.01-1.42-7.35-5.23-8.4-2.69-.74-5.36-.97-8.16-.73-8.55.72-18.44,4.36-25.82,8.63-3.29,1.91-6.18,4.21-8.51,7.18-1.27,1.62-2.1,3.47-2.16,5.54-.1,3.71,2.55,5.76,5.98,6.08.98.09,1.75.57,2.08,1.57l4.42,13.31c.08.25.11.43.29.53-.89,2.37-.74,4.99.16,7.33,1.67,4.35,3.69,4.52,3.93,5.3,1.14,3.82,2.42,7.59,3.77,11.43.77,2.16,3.24,3.11,5.41,2.69,1.73-.33,3.23-1.09,4.82-1.64,1.22.93,2.83.83,4.15.05,4.84-2.88,6.8-2.19,11.91-3.26,2.1-.44,4.1-1.56,3.74-3.93l8.84-3.25c2.73-1,3.72-4.06,2.74-6.67l-3.3-8.83c-.07-.19-.15-.33-.28-.41l.36-1.59c.35-1.55,1.04-3.01,1.19-4.53.35,1.09,3.8,10.52,3.8,10.52l1.44,3.93Z"/>
        <path class="cls-5" d="M52.08,20.15c-.21-.12-.81-.27-.96-.08-.73,1.14-.45,2.43.12,3.72-.85-.25-1.6-.07-2.27-.17-.96-.25-2.03-1.02-3.08-.88.12-.87.03-1.76-.78-2.22-.71-.4-1.77-.33-2.25.5s-.67,1.66-1.02,2.43c-1.11-.09-2.01-.99-2.94-1.44l3.02-7.7c.34-.86-.21-1.77-.94-2.07s-1.79-.04-2.14.82l-3,7.46c-.86-.42-2.64-.1-3.42-.23-.85-1.75-2.15-3.2-3.28-4.77.39-1.24,2.2-4,0-4.75-1.56-.54-1.99,1-2.5,1.71l-1.13-1.78c-.72-1.14-1.99-1.47-3.27-.99-4.07,1.52-5.21,6.07-11.6,8.46-1.98.74-2.89,2.7-2.03,4.76,1.03,2.47,2.59,4.65,4.13,6.91,2.42,3.54,4.7,7.05,6.9,10.64-.22.87-3.14,5.04-3.42,5.79-.18-.09-.21-.28-.29-.53l-4.42-13.31c-.33-1-1.1-1.48-2.08-1.57-3.44-.32-6.08-2.37-5.98-6.08.06-2.07.88-3.92,2.16-5.54,2.34-2.97,5.22-5.27,8.51-7.18,7.38-4.28,17.27-7.91,25.82-8.63,2.8-.24,5.48,0,8.16.73,3.81,1.05,6.88,4.39,5.23,8.4-.42,1.03-1.06,1.85-1.81,2.64-1.43,1.52.3,3.56.55,4.96Z"/>
        <path class="cls-5" d="M21.7,59.43c.37,2.51,2.49,4.36,5.1,4.12,2.17-.2.61.06,2.75-.55-.1.99-.8,1.94.17,2.98.48.52,1.19.44,1.84.39l1.23,2.64c.37.79.84,1.85,1.53,2.38-1.59.54-3.08,1.31-4.82,1.64-2.16.41-4.64-.53-5.41-2.69-1.36-3.84-2.63-7.61-3.77-11.43.53-.05.87.44,1.37.53Z"/>
        <path class="cls-5" d="M54.12,64.23c-.07-.45-.53-.89-.53-1.38.16-.21.37-.37.65-.54,2.37-1.43,4.45-3.29,5.97-5.6,1.3-1.98,1.61-4.02,1.42-6.33-.15-1.85.13-3.63.51-5.31.13.08.2.22.28.41l3.3,8.83c.97,2.61-.02,5.66-2.74,6.67l-8.84,3.25Z"/>
        <path class="cls-9" d="M38.9,22.01l-3.05-1.48,3-7.46c.35-.86,1.4-1.12,2.14-.82s1.27,1.2.94,2.07l-3.02,7.7Z"/>
        <path class="cls-9" d="M29.15,15.52c-.96-.9-1.79-1.94-2.49-3.04.51-.71.94-2.25,2.5-1.71,2.19.76.38,3.51,0,4.75Z"/>
        <path class="cls-9" d="M45.89,22.74c-1.2.16-2.63.4-3.71.99-.17,0-.3-.14-.34-.28.35-.78.56-1.64,1.02-2.43s1.54-.9,2.25-.5c.81.46.9,1.35.78,2.22Z"/>
        <g>
          <path class="cls-7" d="M26.66,12.48c.7,1.1,1.53,2.15,2.49,3.04,1.13,1.57,2.43,3.02,3.28,4.77-.48-.08-1.45.19-1.9.36,1.11-.16-3.26-5.12-3.62-5.5-.99-1.09-1.73-2.26-2.43-3.54-1.1-2.02-3.97.66-4.93,1.67-1.5,1.59-2.97,3.12-4.71,4.34-.52.37-1.17.74-1.72,1.05-.96.49-2.17.67-3.01,1.54-.61.63-.5,1.8-.08,2.57.99,1.82,1.96,3.51,3.14,5.24,2.34,3.41,4.63,6.74,6.76,10.29.16.27.26.49.55.44-.19.65-.37,1.23-.83,1.72-2.2-3.59-4.48-7.1-6.9-10.64-1.55-2.26-3.1-4.44-4.13-6.91-.86-2.06.05-4.01,2.03-4.76,6.39-2.39,7.53-6.94,11.6-8.46,1.28-.48,2.55-.15,3.27.99l1.13,1.78Z"/>
          <path class="cls-8" d="M13.13,18.67c.74,3.81,3.37,6.99,6.16,9.52l-.74,1.63c-.82,1.82-.25,3.77,1.16,5.1.68.64.95,1.38,1.29,2.13.05.63-.36,1.15-.52,1.71-.29.05-.39-.17-.55-.44-2.13-3.55-4.42-6.88-6.76-10.29-1.18-1.72-2.16-3.42-3.14-5.24-.42-.77-.52-1.94.08-2.57.85-.88,2.05-1.06,3.01-1.54Z"/>
          <path class="cls-8" d="M30.53,20.65c-1.74.68-4.91,2.28-6.1,3.92l-3.39,1.78c-1.05-1.32-2.39-2.07-3.58-3.65s-2.03-3.29-2.61-5.09c1.74-1.23,3.21-2.75,4.71-4.34.96-1.02,3.83-3.69,4.93-1.67.7,1.28,1.44,2.46,2.43,3.54.35.39,4.72,5.35,3.62,5.5Z"/>
          <path class="cls-10" d="M14.85,17.62c.58,1.79,1.43,3.52,2.61,5.09s2.52,2.32,3.58,3.65c-.05.39-.57.52-.8.85-.28.4-.59.78-.94.98-2.8-2.52-5.43-5.71-6.16-9.52.55-.31,1.2-.68,1.72-1.05Z"/>
        </g>
        <g>
          <path class="cls-6" d="M56.17,36.03c.75.12,1.7.72,2.2,1.34,1.63,2.03-1.45,6,.42,6.37.81.16.8-2.86,1.59-3.98.71-1.01,2.3-1.22,3.31-.81-.15,1.52-.84,2.98-1.19,4.53l-.36,1.59c-.38,1.68-.66,3.46-.51,5.31.19,2.31-.12,4.35-1.42,6.33-1.52,2.31-3.6,4.17-5.97,5.6-.28.17-.49.33-.65.54-.54-.09-.85.5-1.24.67-3.62,1.59-7.51,2.32-11.41,1.08-.47-.15-.95-.26-1.35-.26-.8-.7-2.08-.7-3-1.13-1.63-.75-3.36-1.27-5.15-1.55-.19-.03-.37-.11-.56-.16.26-1.19,1.11-2.04,1.9-2.93.31-.2,2.43,1.47,2.51.34.03-.34-.53-.49-.78-.68.08-.11.25-.16.46-.16,2.58.02,5.33-.58,6.63-2.85l1.2-.04c-.04.15.16.2.28.16.08-.03.14-.1.11-.19.14.01.3-.05.44-.03.08.01.17.03.28.02s.27-.13.15-.28c2.58-.53,4.86-2.33,6.18-4.71,1.88-3.39,1.33-7.2-.43-10.49.89-.78,1.5-1.9,1.73-3.06,1.56.04,3.08-.38,4.62-.55Z"/>
          <path class="cls-6" d="M32.42,20.29c.78.13,2.56-.18,3.42.23l3.05,1.48c.94.46,1.83,1.36,2.94,1.44.04.14.17.28.34.28-1.5.83-2.88,1.96-4.72,2.29-1.06.19-2.15.13-3.18.09-.4-.02-.92-.47-1.5-.36-.07-.79.49-1.87-.11-2.43-.82-.32-1.69.75-2.08,1.57-.07.34-.99-1.75-1.43-.94-.07.13-.23.31-.31.48l-2.04-.16-2.38.29c1.19-1.64,4.36-3.24,6.1-3.92.45-.18,1.42-.44,1.9-.36Z"/>
          <g>
            <path class="cls-7" d="M31.45,61.67c.64,2.29,1.57,4.5,2.54,6.75.4.94,1.54,2.7,2.8,2.18,1.01-.41,2-.85,2.82-1.46.7-.18,1.43-.41,2.02-.82,2.17-.58,4.36-.96,6.69-1.18,1.22-.11,5.01-.69,4.38-2.58l-.34-1.03c.39-.17.7-.76,1.24-.67,0,.5.46.93.53,1.38.36,2.37-1.64,3.49-3.74,3.93-5.11,1.07-7.06.38-11.91,3.26-1.32.78-2.93.88-4.15-.05-.69-.52-1.16-1.59-1.53-2.38l-1.23-2.64c-.58-1.23-.72-2.68-1.36-3.9.17-.32.32-.79.69-.96.19.05.37.13.56.16Z"/>
            <path class="cls-8" d="M36.59,63.22c.53,2.18,1.62,4.16,3.02,5.91-.82.61-1.81,1.05-2.82,1.46-1.27.52-2.4-1.24-2.8-2.18-.96-2.25-1.9-4.46-2.54-6.75,1.78.29,3.52.8,5.15,1.55Z"/>
            <path class="cls-8" d="M52.35,63.52l.34,1.03c.63,1.89-3.16,2.47-4.38,2.58-2.32.21-4.52.6-6.69,1.18-.8-1.26-1.67-2.51-2.04-3.97.4,0,.89.11,1.35.26,3.9,1.23,7.79.5,11.41-1.08Z"/>
            <path class="cls-10" d="M39.59,64.35c.36,1.46,1.24,2.7,2.04,3.97-.6.41-1.33.64-2.02.82-1.4-1.75-2.48-3.73-3.02-5.91.93.43,2.2.43,3,1.13Z"/>
          </g>
          <path class="cls-9" d="M30.2,62.46c.64,1.22.79,2.67,1.36,3.9-.65.05-1.36.13-1.84-.39-.96-1.04-.27-1.99-.17-2.98.03-.29.5-.38.64-.54Z"/>
          <g>
            <path class="cls-6" d="M21.7,59.43c-.5-.09-.84-.59-1.37-.53-.23-.78-2.26-.95-3.93-5.3-.9-2.34-1.06-4.96-.16-7.33.28-.75,3.21-4.93,3.42-5.79.46-.49.64-1.07.83-1.72.16-.56.57-1.08.52-1.71.7,1.58-.07,3.1-.82,4.81-1.12,2.57-.61,5.25,1.05,7.4,3.11,4.02.06,7.46.46,10.17Z"/>
            <path class="cls-2" d="M48.97,23.61c-.55,1.2.44,1.48,1.14,2.26-.33.15-.69.29-.76.55-.27,1.09,1.92,2.25,2.73,2.63.12.45.24.91.17,1.38-.32-.1-.92-.08-1.29.07-.16.44.15.78.06,1.27-.66-.13-2.41-.66-2.8.03-.48.84,1.44,2.32,2.34,2.65-.33.47-1.18.47-1.24.99-.1.82,1.87,1.13,2.23,1.14-.23,1.16-.84,2.28-1.73,3.06-.2-.12-.44-.31-.64-.55-3.94-4.73-11.1-4.73-15.11,0-2.52,2.97-3.09,7.15-1.27,10.77,1.6,3.2,5.09,5.49,8.82,5.35-1.31,2.27-4.06,2.87-6.63,2.85-.21,0-.38.05-.46.16-.67-.34-1.54-.76-1.86-1.54-.37-.91-.49-3.04-1.36-3.55-.25-.15-.53.34-.75.26-.4-.14-.61-1.08-1.19-.92-.43.12-.27.94-.39,1.3-.52-.38-1.55-.95-2.19-.48-.71.52.81,1.93.82,1.98.1.32-.82.49-.79,1s.91.45,1.13.7c.1.11-.15.57-.02.68,1.31,1.09,3.68-.66,4.87.92-.79.89-1.65,1.74-1.9,2.93-.37.17-.53.64-.69.96-.14.15-.61.24-.64.54-2.15.61-.58.34-2.75.55-2.61.24-4.73-1.61-5.1-4.12-.4-2.71,2.65-6.15-.46-10.17-1.67-2.15-2.18-4.83-1.05-7.4.75-1.71,1.51-3.23.82-4.81-.33-.75-.61-1.49-1.29-2.13-1.41-1.33-1.98-3.28-1.16-5.1l.74-1.63c.35-.19.65-.58.94-.98.23-.33.75-.46.8-.85l3.39-1.78,2.38-.29,2.04.16c-.08.19.18.58-.07.77-.14.11-.46-.05-.6.04-1.12.73.64,4.24.32,5.13-.37,1.03-1.06,1.88-1.58,2.95-.6-.96.62-2.48-.18-4.4-.11-.27-.28-.51-.52-.51-.28,0-.45.28-.65.58-.5-.51-1-1.4-1.71-1.27-.54.1-.24,1.92,0,2.47-.38.1-.72-.17-1.09-.05-.24.08-.25.5-.13.72.48.9,1.28,1.54,2.15,2.04,2.82,1.6-.19,4.72.73,5.7.11.12.53.24.62.01l1.06-2.86c.35-.95,1.76-1.05,2.72-.81,1.25.31,2.57.43,3.62-.41-.16-.52-.59-.65-.86-.95l1.08-.72c.27-.18.78-.86.47-1.16-.53-.52-1.41-.13-2.06-.16-.03-.27.09-.61-.03-.79s-.52-.13-.76-.03c-2.15.89-2.35,3.28-3.48,3.05.56-.94.83-2.05,1.49-2.85,1.02-1.24,5.68-1.95,3.96-3.48.5-.32.87-.76.94-1.33,1.02.04,2.12.1,3.18-.09,1.84-.33,3.22-1.46,4.72-2.29,1.08-.6,2.51-.83,3.71-.99,1.05-.14,2.12.62,3.08.88Z"/>
            <path class="cls-3" d="M34.53,58.22c.25.19.8.34.78.68-.08,1.13-2.2-.53-2.51-.34-1.19-1.59-3.56.16-4.87-.92-.13-.11.12-.56.02-.68-.22-.25-1.1-.2-1.13-.7s.89-.69.79-1c-.02-.05-1.53-1.46-.82-1.98.64-.47,1.67.1,2.19.48.12-.36-.04-1.18.39-1.3.57-.16.79.78,1.19.92.22.08.51-.41.75-.26.87.52.99,2.64,1.36,3.55.31.77,1.19,1.2,1.86,1.54Z"/>
            <path class="cls-11" d="M34.28,26.11c-.08.57-.45,1.01-.94,1.33,1.72,1.54-2.94,2.25-3.96,3.48-.66.8-.93,1.91-1.49,2.85,1.13.23,1.34-2.16,3.48-3.05.24-.1.63-.15.76.03s0,.52.03.79c.65.02,1.53-.36,2.06.16.3.3-.2.98-.47,1.16l-1.08.72c.27.3.69.43.86.95-1.05.83-2.37.71-3.62.41-.95-.23-2.37-.14-2.72.81l-1.06,2.86c-.08.23-.51.1-.62-.01-.92-.99,2.09-4.1-.73-5.7-.87-.49-1.67-1.14-2.15-2.04-.12-.22-.12-.64.13-.72.37-.13.71.15,1.09.05-.24-.55-.54-2.36,0-2.47.7-.13,1.21.76,1.71,1.27.2-.31.37-.58.65-.58.24,0,.41.24.52.51.81,1.92-.41,3.45.18,4.4.52-1.07,1.21-1.91,1.58-2.95.32-.89-1.44-4.41-.32-5.13.13-.09.45.07.6-.04.25-.19-.01-.58.07-.77.07-.17.24-.35.31-.48.44-.81,1.36,1.27,1.43.94.39-.81,1.26-1.89,2.08-1.57.6.56.04,1.63.11,2.43.58-.11,1.1.34,1.5.36Z"/>
            <g>
              <path class="cls-1" d="M49.82,39.64c1.76,3.28,2.31,7.1.43,10.49-1.32,2.39-3.6,4.18-6.18,4.71-.11.02-.24-.05-.38.06-.05.04-.14.1-.05.2-.14-.02-.3.04-.44.03-.07,0-.15-.15-.23-.08-.06.04-.12.09-.16.12l-1.2.04c-3.73.13-7.22-2.15-8.82-5.35-1.81-3.63-1.25-7.8,1.27-10.77,4.01-4.72,11.17-4.72,15.11,0,.2.24.44.42.64.55ZM48.46,43.95c-.14-3.59-4.21-6.11-5.12-4.45-.25.45-.24,1.38.36,1.59,3.13,1.08,1.81,3.74,3.52,3.77.42,0,1.27-.15,1.24-.92Z"/>
              <path class="cls-2" d="M44.07,54.85c.12.14-.04.26-.15.28s-.2,0-.28-.02c-.1-.1,0-.16.05-.2.14-.11.27-.04.38-.06Z"/>
              <path class="cls-2" d="M43.2,55.13c.03.09-.03.17-.11.19-.12.04-.32,0-.28-.16.04-.03.1-.08.16-.12.09-.07.16.08.23.08Z"/>
              <path class="cls-6" d="M48.46,43.95c.03.76-.82.93-1.24.92-1.7-.03-.39-2.69-3.52-3.77-.61-.21-.61-1.14-.36-1.59.91-1.67,4.98.85,5.12,4.45Z"/>
            </g>
          </g>
          <g>
            <path class="cls-11" d="M69.25,28.87c-1.32,1.36-4.52,1.63-5.06,3.02-.4.18-.52.59-.71.94-.85,1.57-1.7,3.13-2.38,4.89.93.07,2.18-2.36,2.72-3.04.38-.36.93-.54,1.19-1.01.36.06.8-.34,1.22-.15.39.18.09.8-.02,1.17.78-.2,3.42-.87,2.87.52-.38.96-1.3,1.35-2.2,1.92.51.22,1.55.58,1.27,1.22-.68.67-1.9.68-2.79.76-.47.04-1.18-.26-1.67-.15-1.01-.41-2.6-.2-3.31.81-.78,1.12-.78,4.14-1.59,3.98-1.88-.37,1.21-4.34-.42-6.37-.5-.62-1.44-1.22-2.2-1.34.04-.42-2.76-2.23-1.53-3.06.41-.06.76.16,1.31.17-.23-.78-.46-1.46-.52-2.18.19-.19.19-.5.34-.78.14-.27.5-.21.71-.27.53.7,1.27,1.19,1.61,2.04.18-.4.34-.72.31-.98,1.41-.5,1.55,2.05,1.57,2.89.02.92-.63,2.61-.14,3.38l2.61-5.3c.46-.38.53-1.08.36-1.72l-.82-3.1c-.17-.65-.23-1.27-.03-1.85.33,0,.67.12.84-.19.27-.49.24-1.54.64-1.66.93-.26,1.1,1.22,1.56,1.47.48-1.05,1.43-2.56,2.66-2.38.81.78.37,2.49-.1,3.54.61-.03,1.36-.32,2,.03.72.39-.83,1.56-.84,1.83.08.3.54.57.54.94Z"/>
            <path class="cls-3" d="M52.08,20.15c.22.13.43.48.68.66.69.48.99,1.14,1.31,1.96.61-1,.58-1.91,1.88-1.77.11.28.34.58.37.88,0,.51-.26,1.02-.12,1.52.3-.29.58-.5.88-.5.92,0,.58,2.32.46,2.87-.3,1.4-.93,2.71-1.05,4.14-.21.05-.57,0-.71.27-.15.29-.15.59-.34.78-1.44-1.36-2.23-1.38-3.35-1.91-.81-.38-2.99-1.54-2.73-2.63.06-.26.42-.4.76-.55-.7-.78-1.69-1.06-1.14-2.26.67.1,1.42-.08,2.27.17-.56-1.29-.85-2.58-.12-3.72.15-.19.75-.04.96.08Z"/>
            <path class="cls-3" d="M52.24,30.44c.89.78,2.1,1.35,2.4,2.53-1.23.83,1.57,2.65,1.53,3.06-1.54.16-3.07.59-4.62.55-.36-.01-2.33-.31-2.23-1.14.06-.52.9-.52,1.24-.99-.9-.33-2.82-1.81-2.34-2.65.39-.69,2.14-.15,2.8-.03.09-.48-.22-.83-.06-1.27.37-.14.97-.17,1.29-.07ZM51.37,31.86s-.04-.09-.09-.09-.09.04-.09.09.04.09.09.09.09-.04.09-.09Z"/>
            <path class="cls-3" d="M61.96,25.28c-.2.58-.14,1.19.03,1.85l.82,3.1c.17.64.1,1.34-.36,1.72l-2.47,1.92c-.02-.83-.16-3.39-1.57-2.89-.57-1.42-.69-3.37.3-4.47l.16-.18c.61.09.87.67.89,1.38.38-.43.64-.88.69-1.4.57-.33.75-1,1.51-1.02Z"/>
            <path class="cls-6" d="M58.7,26.5c-.99,1.1-.87,3.05-.3,4.47.04.26-.13.58-.31.98-.33-.84-1.08-1.33-1.61-2.04.12-1.42.75-2.74,1.05-4.14.48.03,1.01.24,1.17.72Z"/>
            <path class="cls-6" d="M55.43,30.97c.07.72.3,1.39.52,2.18-.54-.02-.9-.23-1.31-.17-.3-1.18-1.51-1.75-2.4-2.53.07-.47-.05-.93-.17-1.38,1.13.53,1.91.55,3.35,1.91Z"/>
            <path class="cls-6" d="M62.44,31.94l-2.61,5.3c-.49-.77.17-2.46.14-3.38l2.47-1.92Z"/>
            <path class="cls-6" d="M63.81,34.67c-.54.68-1.79,3.11-2.72,3.04.68-1.76,1.54-3.32,2.38-4.89.16.54.46,1.26.34,1.85Z"/>
            <circle class="cls-2" cx="51.28" cy="31.86" r=".09"/>
          </g>
        </g>
      </g>
    </g>
  </g>
</svg>